<?xml version="1.0" encoding="utf-8"?>
<!-- Generator: Adobe Illustrator 24.1.1, SVG Export Plug-In . SVG Version: 6.00 Build 0)  -->
<svg version="1.1" id="Layer_1" xmlns="http://www.w3.org/2000/svg" xmlns:xlink="http://www.w3.org/1999/xlink" x="0px" y="0px"
	 viewBox="0 0 512 512" style="enable-background:new 0 0 512 512;" xml:space="preserve">
<g>
	<path d="M128.04,460.75c14.15,0,25.59-11.47,25.59-25.59c0-14.15-11.45-25.59-25.59-25.59c-14.15,0-25.59,11.45-25.59,25.59
		C102.44,449.28,113.89,460.75,128.04,460.75z M153.63,281.54v81.21c39.99,14.15,60.96,58.01,46.81,98
		c-14.12,40.02-58.01,60.96-98,46.84c-39.99-14.15-60.96-58.01-46.81-98.03c7.72-21.87,24.94-39.09,46.81-46.81v-213.5
		C62.45,135.1,41.48,91.24,55.63,51.22c14.12-39.99,58.01-60.94,98-46.81c39.99,14.15,60.96,58.01,46.81,98
		c-7.72,21.9-24.94,39.09-46.81,46.84v59.89c8-2.82,16.57-4.35,25.52-4.37l154.52-0.15c14.12-0.02,25.57-11.47,25.57-25.59v-29.49
		c-40.14-13.75-61.51-57.41-47.76-97.55c10.62-30.99,39.74-51.86,72.51-51.91c42.42-0.02,76.81,34.34,76.81,76.76
		c0.02,32.22-20.1,61.04-50.36,72.13v30.07c0,42.37-34.34,76.73-76.71,76.78l-154.52,0.15
		C165.08,255.95,153.63,267.42,153.63,281.54z M128.04,102.43c14.15,0,25.59-11.47,25.59-25.59c0-14.15-11.45-25.59-25.59-25.59
		c-14.15,0-25.59,11.45-25.59,25.59C102.44,90.96,113.89,102.43,128.04,102.43z M383.98,102.43c14.15,0,25.59-11.47,25.59-25.59
		c0-14.15-11.45-25.59-25.59-25.59s-25.59,11.45-25.59,25.59C358.39,90.96,369.83,102.43,383.98,102.43z"/>
</g>
</svg>
