<svg xmlns="http://www.w3.org/2000/svg" width="24" height="24" fill="none" viewBox="0 0 24 24">
    <path fill="#24292E" fill-rule="evenodd" d="M4.75 3C3.784 3 3 3.784 3 4.75S3.784 6.5 4.75 6.5 6.5 5.716 6.5 4.75 5.716 3 4.75 3zM1.5 4.75c0-1.795 1.455-3.25 3.25-3.25S8 2.955 8 4.75 6.545 8 4.75 8 1.5 6.545 1.5 4.75zM4.75 17.5c-.966 0-1.75.784-1.75 1.75S3.784 21 4.75 21s1.75-.784 1.75-1.75-.784-1.75-1.75-1.75zM1.5 19.25C1.5 17.455 2.955 16 4.75 16S8 17.455 8 19.25 6.545 22.5 4.75 22.5 1.5 21.045 1.5 19.25zM19.25 17.5c-.966 0-1.75.784-1.75 1.75S18.284 21 19.25 21 21 20.216 21 19.25s-.784-1.75-1.75-1.75zM16 19.25c0-1.795 1.455-3.25 3.25-3.25s3.25 1.455 3.25 3.25-1.455 3.25-3.25 3.25S16 21.045 16 19.25z" clip-rule="evenodd"/>
    <path fill="#24292E" fill-rule="evenodd" d="M4.75 7.25c.414 0 .75.336.75.75v8c0 .414-.336.75-.75.75S4 16.414 4 16V8c0-.414.336-.75.75-.75zM13.405 1.72c.293.293.293.767 0 1.06L12.185 4h4.065C18.321 4 20 5.679 20 7.75v8.75c0 .414-.336.75-.75.75s-.75-.336-.75-.75V7.75c0-1.243-1.007-2.25-2.25-2.25h-4.064l1.22 1.22c.292.293.292.767 0 1.06-.294.293-.768.293-1.061 0l-2.5-2.5c-.293-.293-.293-.767 0-1.06l2.5-2.5c.293-.293.767-.293 1.06 0z" clip-rule="evenodd"/>
</svg>
